<?xml version="1.0" encoding="UTF-8" standalone="no"?><!-- Generator: Gravit.io --><svg xmlns="http://www.w3.org/2000/svg" xmlns:xlink="http://www.w3.org/1999/xlink" style="isolation:isolate" viewBox="0 0 100 100" width="100pt" height="100pt"><defs><clipPath id="_clipPath_UmJNI3fo8Q70dvDowNGhjNqfodQwlJNk"><rect width="100" height="100"/></clipPath></defs><g clip-path="url(#_clipPath_UmJNI3fo8Q70dvDowNGhjNqfodQwlJNk)"><rect width="100" height="100" style="fill:rgb(0,0,0)" fill-opacity="0"/><path d=" M 78.693 10.873 L 69.563 10.873 C 68.123 10.873 66.955 12.041 66.955 13.482 L 66.955 21.307 L 59.13 21.307 L 59.13 13.482 C 59.13 12.041 57.962 10.873 56.521 10.873 L 43.479 10.873 C 42.038 10.873 40.87 12.041 40.87 13.482 L 40.87 21.307 L 33.061 21.307 L 33.061 13.482 C 33.061 12.041 31.893 10.873 30.453 10.873 L 21.307 10.873 C 19.866 10.873 18.698 12.041 18.698 13.482 L 18.698 42.175 L 29.132 47.392 C 29.132 55.271 28.881 62.879 26.979 73.476 L 73.021 73.476 C 71.119 62.879 70.868 55.171 70.868 47.392 L 81.302 42.175 L 81.302 13.482 C 81.302 12.041 80.134 10.873 78.693 10.873 Z  M 55.217 57.825 L 44.783 57.825 L 44.783 47.392 C 44.783 44.51 47.119 42.175 50 42.175 C 52.881 42.175 55.217 44.51 55.217 47.392 L 55.217 57.825 Z  M 78.693 78.693 L 21.307 78.693 C 19.866 78.693 18.698 79.861 18.698 81.302 L 18.698 86.518 C 18.698 87.959 19.866 89.127 21.307 89.127 L 78.693 89.127 C 80.134 89.127 81.302 87.959 81.302 86.518 L 81.302 81.302 C 81.302 79.861 80.134 78.693 78.693 78.693 Z " fill="rgb(61,150,242)"/></g></svg>